<mxfile host="app.diagrams.net" modified="2020-12-03T09:27:05.349Z" agent="5.0 (Macintosh; Intel Mac OS X 10_15_7) AppleWebKit/537.36 (KHTML, like Gecko) Chrome/87.0.4280.67 Safari/537.36" etag="nKJXOeQjFOazq3vrEw8O" version="13.10.6" type="github">
  <diagram id="KbWu_jmLlaJrOJanSZCp" name="Page-1">
    <mxGraphModel dx="1426" dy="793" grid="1" gridSize="10" guides="1" tooltips="1" connect="1" arrows="1" fold="1" page="1" pageScale="1" pageWidth="2339" pageHeight="3300" math="0" shadow="0">
      <root>
        <mxCell id="0" />
        <mxCell id="1" parent="0" />
        <mxCell id="FaUCYpH1xtSCSybZSyPg-3" value="" style="edgeStyle=orthogonalEdgeStyle;rounded=0;orthogonalLoop=1;jettySize=auto;html=1;" edge="1" parent="1" source="FaUCYpH1xtSCSybZSyPg-1" target="FaUCYpH1xtSCSybZSyPg-2">
          <mxGeometry relative="1" as="geometry" />
        </mxCell>
        <mxCell id="FaUCYpH1xtSCSybZSyPg-1" value="get orgin person" style="rounded=1;whiteSpace=wrap;html=1;" vertex="1" parent="1">
          <mxGeometry x="120" y="360" width="120" height="60" as="geometry" />
        </mxCell>
        <mxCell id="FaUCYpH1xtSCSybZSyPg-5" value="" style="edgeStyle=orthogonalEdgeStyle;rounded=0;orthogonalLoop=1;jettySize=auto;html=1;" edge="1" parent="1" source="FaUCYpH1xtSCSybZSyPg-2" target="FaUCYpH1xtSCSybZSyPg-4">
          <mxGeometry relative="1" as="geometry" />
        </mxCell>
        <mxCell id="FaUCYpH1xtSCSybZSyPg-19" style="edgeStyle=orthogonalEdgeStyle;rounded=0;orthogonalLoop=1;jettySize=auto;html=1;exitX=0;exitY=0.5;exitDx=0;exitDy=0;entryX=0;entryY=0.5;entryDx=0;entryDy=0;" edge="1" parent="1" source="FaUCYpH1xtSCSybZSyPg-2" target="FaUCYpH1xtSCSybZSyPg-17">
          <mxGeometry relative="1" as="geometry">
            <Array as="points">
              <mxPoint x="50" y="530" />
              <mxPoint x="50" y="970" />
            </Array>
          </mxGeometry>
        </mxCell>
        <mxCell id="FaUCYpH1xtSCSybZSyPg-2" value="cache esist" style="rhombus;whiteSpace=wrap;html=1;rounded=1;" vertex="1" parent="1">
          <mxGeometry x="140" y="490" width="80" height="80" as="geometry" />
        </mxCell>
        <mxCell id="FaUCYpH1xtSCSybZSyPg-8" value="" style="edgeStyle=orthogonalEdgeStyle;rounded=0;orthogonalLoop=1;jettySize=auto;html=1;" edge="1" parent="1" source="FaUCYpH1xtSCSybZSyPg-4" target="FaUCYpH1xtSCSybZSyPg-7">
          <mxGeometry relative="1" as="geometry" />
        </mxCell>
        <mxCell id="FaUCYpH1xtSCSybZSyPg-4" value="get orgin from es&lt;br&gt;" style="whiteSpace=wrap;html=1;rounded=1;" vertex="1" parent="1">
          <mxGeometry x="120" y="660" width="120" height="60" as="geometry" />
        </mxCell>
        <mxCell id="FaUCYpH1xtSCSybZSyPg-6" value="N" style="text;html=1;align=center;verticalAlign=middle;resizable=0;points=[];autosize=1;" vertex="1" parent="1">
          <mxGeometry x="200" y="600" width="20" height="20" as="geometry" />
        </mxCell>
        <mxCell id="FaUCYpH1xtSCSybZSyPg-18" value="" style="edgeStyle=orthogonalEdgeStyle;rounded=0;orthogonalLoop=1;jettySize=auto;html=1;" edge="1" parent="1" source="FaUCYpH1xtSCSybZSyPg-7" target="FaUCYpH1xtSCSybZSyPg-17">
          <mxGeometry relative="1" as="geometry" />
        </mxCell>
        <mxCell id="FaUCYpH1xtSCSybZSyPg-7" value="bulid cache&lt;br&gt;" style="whiteSpace=wrap;html=1;rounded=1;" vertex="1" parent="1">
          <mxGeometry x="120" y="800" width="120" height="60" as="geometry" />
        </mxCell>
        <mxCell id="FaUCYpH1xtSCSybZSyPg-14" value="" style="edgeStyle=orthogonalEdgeStyle;rounded=0;orthogonalLoop=1;jettySize=auto;html=1;" edge="1" parent="1" source="FaUCYpH1xtSCSybZSyPg-11" target="FaUCYpH1xtSCSybZSyPg-13">
          <mxGeometry relative="1" as="geometry" />
        </mxCell>
        <mxCell id="FaUCYpH1xtSCSybZSyPg-11" value="建立 del_id:orgin_id的缓存 type string&lt;br&gt;" style="whiteSpace=wrap;html=1;rounded=1;" vertex="1" parent="1">
          <mxGeometry x="340" y="730" width="120" height="60" as="geometry" />
        </mxCell>
        <mxCell id="FaUCYpH1xtSCSybZSyPg-13" value="添加orgin_id:del_id的反向索引(inverted set)存 type set 用以标记缓存存活" style="whiteSpace=wrap;html=1;rounded=1;" vertex="1" parent="1">
          <mxGeometry x="340" y="870" width="120" height="60" as="geometry" />
        </mxCell>
        <mxCell id="FaUCYpH1xtSCSybZSyPg-16" value="" style="shape=flexArrow;endArrow=classic;html=1;" edge="1" parent="1" source="FaUCYpH1xtSCSybZSyPg-7">
          <mxGeometry width="50" height="50" relative="1" as="geometry">
            <mxPoint x="270" y="829.5" as="sourcePoint" />
            <mxPoint x="340" y="829.5" as="targetPoint" />
          </mxGeometry>
        </mxCell>
        <mxCell id="FaUCYpH1xtSCSybZSyPg-17" value="return" style="whiteSpace=wrap;html=1;rounded=1;" vertex="1" parent="1">
          <mxGeometry x="120" y="940" width="120" height="60" as="geometry" />
        </mxCell>
        <mxCell id="FaUCYpH1xtSCSybZSyPg-20" value="Y" style="text;html=1;align=center;verticalAlign=middle;resizable=0;points=[];autosize=1;" vertex="1" parent="1">
          <mxGeometry x="90" y="490" width="20" height="20" as="geometry" />
        </mxCell>
        <mxCell id="FaUCYpH1xtSCSybZSyPg-24" value="" style="edgeStyle=orthogonalEdgeStyle;rounded=0;orthogonalLoop=1;jettySize=auto;html=1;" edge="1" parent="1" source="FaUCYpH1xtSCSybZSyPg-22" target="FaUCYpH1xtSCSybZSyPg-23">
          <mxGeometry relative="1" as="geometry" />
        </mxCell>
        <mxCell id="FaUCYpH1xtSCSybZSyPg-22" value="merge person&lt;br&gt;" style="rounded=1;whiteSpace=wrap;html=1;" vertex="1" parent="1">
          <mxGeometry x="780" y="320" width="120" height="60" as="geometry" />
        </mxCell>
        <mxCell id="FaUCYpH1xtSCSybZSyPg-26" value="" style="edgeStyle=orthogonalEdgeStyle;rounded=0;orthogonalLoop=1;jettySize=auto;html=1;" edge="1" parent="1" source="FaUCYpH1xtSCSybZSyPg-23" target="FaUCYpH1xtSCSybZSyPg-25">
          <mxGeometry relative="1" as="geometry" />
        </mxCell>
        <mxCell id="FaUCYpH1xtSCSybZSyPg-23" value="call vision module merge" style="whiteSpace=wrap;html=1;rounded=1;" vertex="1" parent="1">
          <mxGeometry x="780" y="460" width="120" height="60" as="geometry" />
        </mxCell>
        <mxCell id="FaUCYpH1xtSCSybZSyPg-28" value="" style="edgeStyle=orthogonalEdgeStyle;rounded=0;orthogonalLoop=1;jettySize=auto;html=1;" edge="1" parent="1" source="FaUCYpH1xtSCSybZSyPg-25" target="FaUCYpH1xtSCSybZSyPg-27">
          <mxGeometry relative="1" as="geometry" />
        </mxCell>
        <mxCell id="FaUCYpH1xtSCSybZSyPg-40" value="" style="edgeStyle=orthogonalEdgeStyle;rounded=0;orthogonalLoop=1;jettySize=auto;html=1;" edge="1" parent="1" source="FaUCYpH1xtSCSybZSyPg-25" target="FaUCYpH1xtSCSybZSyPg-39">
          <mxGeometry relative="1" as="geometry" />
        </mxCell>
        <mxCell id="FaUCYpH1xtSCSybZSyPg-25" value="update cache" style="whiteSpace=wrap;html=1;rounded=1;" vertex="1" parent="1">
          <mxGeometry x="780" y="600" width="120" height="60" as="geometry" />
        </mxCell>
        <mxCell id="FaUCYpH1xtSCSybZSyPg-27" value="异步更新到es" style="whiteSpace=wrap;html=1;rounded=1;" vertex="1" parent="1">
          <mxGeometry x="640" y="740" width="120" height="60" as="geometry" />
        </mxCell>
        <mxCell id="FaUCYpH1xtSCSybZSyPg-31" value="" style="edgeStyle=orthogonalEdgeStyle;rounded=0;orthogonalLoop=1;jettySize=auto;html=1;" edge="1" parent="1" source="FaUCYpH1xtSCSybZSyPg-29" target="FaUCYpH1xtSCSybZSyPg-30">
          <mxGeometry relative="1" as="geometry" />
        </mxCell>
        <mxCell id="FaUCYpH1xtSCSybZSyPg-29" value="更新inverted set&amp;nbsp;" style="whiteSpace=wrap;html=1;" vertex="1" parent="1">
          <mxGeometry x="1010" y="530" width="120" height="60" as="geometry" />
        </mxCell>
        <mxCell id="FaUCYpH1xtSCSybZSyPg-30" value="建立新的缓存关系" style="whiteSpace=wrap;html=1;" vertex="1" parent="1">
          <mxGeometry x="1010" y="670" width="120" height="60" as="geometry" />
        </mxCell>
        <mxCell id="FaUCYpH1xtSCSybZSyPg-32" value="" style="shape=flexArrow;endArrow=classic;html=1;exitX=1;exitY=0.5;exitDx=0;exitDy=0;" edge="1" parent="1" source="FaUCYpH1xtSCSybZSyPg-25">
          <mxGeometry width="50" height="50" relative="1" as="geometry">
            <mxPoint x="950" y="660" as="sourcePoint" />
            <mxPoint x="1010" y="630" as="targetPoint" />
          </mxGeometry>
        </mxCell>
        <mxCell id="FaUCYpH1xtSCSybZSyPg-33" value="" style="shape=flexArrow;endArrow=classic;html=1;" edge="1" parent="1">
          <mxGeometry width="50" height="50" relative="1" as="geometry">
            <mxPoint x="1130" y="559.5" as="sourcePoint" />
            <mxPoint x="1220" y="559.5" as="targetPoint" />
          </mxGeometry>
        </mxCell>
        <mxCell id="FaUCYpH1xtSCSybZSyPg-36" value="" style="edgeStyle=orthogonalEdgeStyle;rounded=0;orthogonalLoop=1;jettySize=auto;html=1;" edge="1" parent="1" source="FaUCYpH1xtSCSybZSyPg-34" target="FaUCYpH1xtSCSybZSyPg-35">
          <mxGeometry relative="1" as="geometry" />
        </mxCell>
        <mxCell id="FaUCYpH1xtSCSybZSyPg-34" value="以将要删除的id为key,寻找他的inverted set" style="rounded=0;whiteSpace=wrap;html=1;" vertex="1" parent="1">
          <mxGeometry x="1220" y="380" width="120" height="60" as="geometry" />
        </mxCell>
        <mxCell id="FaUCYpH1xtSCSybZSyPg-38" value="" style="edgeStyle=orthogonalEdgeStyle;rounded=0;orthogonalLoop=1;jettySize=auto;html=1;" edge="1" parent="1" source="FaUCYpH1xtSCSybZSyPg-35" target="FaUCYpH1xtSCSybZSyPg-37">
          <mxGeometry relative="1" as="geometry" />
        </mxCell>
        <mxCell id="FaUCYpH1xtSCSybZSyPg-35" value="将要删除id的invert set中的 id转移到 被merge 的inverted set" style="whiteSpace=wrap;html=1;rounded=0;" vertex="1" parent="1">
          <mxGeometry x="1220" y="520" width="120" height="60" as="geometry" />
        </mxCell>
        <mxCell id="FaUCYpH1xtSCSybZSyPg-37" value="将转移的id的origin ID指向要删除的id 的origin" style="whiteSpace=wrap;html=1;rounded=0;" vertex="1" parent="1">
          <mxGeometry x="1220" y="660" width="120" height="60" as="geometry" />
        </mxCell>
        <mxCell id="FaUCYpH1xtSCSybZSyPg-39" value="return" style="whiteSpace=wrap;html=1;rounded=1;" vertex="1" parent="1">
          <mxGeometry x="780" y="740" width="120" height="60" as="geometry" />
        </mxCell>
        <mxCell id="FaUCYpH1xtSCSybZSyPg-48" value="" style="edgeStyle=orthogonalEdgeStyle;rounded=0;orthogonalLoop=1;jettySize=auto;html=1;" edge="1" parent="1" source="FaUCYpH1xtSCSybZSyPg-42" target="FaUCYpH1xtSCSybZSyPg-47">
          <mxGeometry relative="1" as="geometry" />
        </mxCell>
        <mxCell id="FaUCYpH1xtSCSybZSyPg-42" value="del person" style="rounded=1;whiteSpace=wrap;html=1;" vertex="1" parent="1">
          <mxGeometry x="1570" y="380" width="120" height="60" as="geometry" />
        </mxCell>
        <mxCell id="FaUCYpH1xtSCSybZSyPg-46" value="" style="edgeStyle=orthogonalEdgeStyle;rounded=0;orthogonalLoop=1;jettySize=auto;html=1;" edge="1" parent="1" source="FaUCYpH1xtSCSybZSyPg-43" target="FaUCYpH1xtSCSybZSyPg-45">
          <mxGeometry relative="1" as="geometry" />
        </mxCell>
        <mxCell id="FaUCYpH1xtSCSybZSyPg-43" value="get inveert set&lt;br&gt;" style="whiteSpace=wrap;html=1;rounded=1;" vertex="1" parent="1">
          <mxGeometry x="1760" y="320" width="120" height="60" as="geometry" />
        </mxCell>
        <mxCell id="FaUCYpH1xtSCSybZSyPg-53" value="" style="edgeStyle=orthogonalEdgeStyle;rounded=0;orthogonalLoop=1;jettySize=auto;html=1;" edge="1" parent="1" source="FaUCYpH1xtSCSybZSyPg-45" target="FaUCYpH1xtSCSybZSyPg-52">
          <mxGeometry relative="1" as="geometry" />
        </mxCell>
        <mxCell id="FaUCYpH1xtSCSybZSyPg-45" value="通过invert set获取 del_id 再删除 del_id:orgin_id缓存" style="whiteSpace=wrap;html=1;rounded=1;" vertex="1" parent="1">
          <mxGeometry x="1760" y="460" width="120" height="60" as="geometry" />
        </mxCell>
        <mxCell id="FaUCYpH1xtSCSybZSyPg-50" value="" style="edgeStyle=orthogonalEdgeStyle;rounded=0;orthogonalLoop=1;jettySize=auto;html=1;" edge="1" parent="1" source="FaUCYpH1xtSCSybZSyPg-47" target="FaUCYpH1xtSCSybZSyPg-49">
          <mxGeometry relative="1" as="geometry" />
        </mxCell>
        <mxCell id="FaUCYpH1xtSCSybZSyPg-57" value="" style="edgeStyle=orthogonalEdgeStyle;rounded=0;orthogonalLoop=1;jettySize=auto;html=1;" edge="1" parent="1" source="FaUCYpH1xtSCSybZSyPg-47" target="FaUCYpH1xtSCSybZSyPg-56">
          <mxGeometry relative="1" as="geometry" />
        </mxCell>
        <mxCell id="FaUCYpH1xtSCSybZSyPg-47" value="delete ca che" style="rounded=1;whiteSpace=wrap;html=1;" vertex="1" parent="1">
          <mxGeometry x="1570" y="530" width="120" height="60" as="geometry" />
        </mxCell>
        <mxCell id="FaUCYpH1xtSCSybZSyPg-49" value="return&lt;br&gt;" style="whiteSpace=wrap;html=1;rounded=1;" vertex="1" parent="1">
          <mxGeometry x="1570" y="670" width="120" height="60" as="geometry" />
        </mxCell>
        <mxCell id="FaUCYpH1xtSCSybZSyPg-51" value="" style="shape=flexArrow;endArrow=classic;html=1;" edge="1" parent="1">
          <mxGeometry width="50" height="50" relative="1" as="geometry">
            <mxPoint x="1690" y="560" as="sourcePoint" />
            <mxPoint x="1810" y="560" as="targetPoint" />
          </mxGeometry>
        </mxCell>
        <mxCell id="FaUCYpH1xtSCSybZSyPg-55" value="" style="edgeStyle=orthogonalEdgeStyle;rounded=0;orthogonalLoop=1;jettySize=auto;html=1;" edge="1" parent="1" source="FaUCYpH1xtSCSybZSyPg-52" target="FaUCYpH1xtSCSybZSyPg-54">
          <mxGeometry relative="1" as="geometry" />
        </mxCell>
        <mxCell id="FaUCYpH1xtSCSybZSyPg-52" value="delete ID：name缓存" style="whiteSpace=wrap;html=1;rounded=1;" vertex="1" parent="1">
          <mxGeometry x="1760" y="600" width="120" height="60" as="geometry" />
        </mxCell>
        <mxCell id="FaUCYpH1xtSCSybZSyPg-54" value="delete revert set 缓存" style="whiteSpace=wrap;html=1;rounded=1;" vertex="1" parent="1">
          <mxGeometry x="1760" y="740" width="120" height="60" as="geometry" />
        </mxCell>
        <mxCell id="FaUCYpH1xtSCSybZSyPg-56" value="delete to es" style="whiteSpace=wrap;html=1;rounded=1;" vertex="1" parent="1">
          <mxGeometry x="1370" y="530" width="120" height="60" as="geometry" />
        </mxCell>
      </root>
    </mxGraphModel>
  </diagram>
</mxfile>
